<?xml version="1.0" encoding="iso-8859-1"?>
<!-- Generator: Adobe Illustrator 19.0.0, SVG Export Plug-In . SVG Version: 6.00 Build 0)  -->
<svg version="1.1" id="Capa_1" xmlns="http://www.w3.org/2000/svg" xmlns:xlink="http://www.w3.org/1999/xlink" x="0px" y="0px"
	 viewBox="0 0 496 496" style="enable-background:new 0 0 496 496;" xml:space="preserve">
<g>
	<g>
		<g>
			<path fill="#1a9e77" d="M224,64h-24V0h-80v64H96v32H80v80h16v17.368c-9.312,3.304-16,12.2-16,22.632v112c0,10.432,6.688,19.328,16,22.632V400h16
				v48h16v48h64v-48h16v-48h16v-49.368c9.312-3.304,16-12.2,16-22.632V216c0-10.432-6.688-19.328-16-22.632V176h16V96h-16V64z
				 M136,16h48v16h-48V16z M176,480h-32v-32h32V480z M192,432h-64v-32h64V432z M224,328c0,4.416-3.584,8-8,8h-8v48h-96v-48h-8
				c-4.416,0-8-3.584-8-8v-24h128V328z M224,256h-16v16h16v16H96v-16h96v-16H96v-16h128V256z M224,160h-16v48h8c4.416,0,8,3.584,8,8
				v8H96v-8c0-4.416,3.584-8,8-8h8v-48H96v-48h16V80h24V48h48v32h24v32h16V160z"/>
			<path fill="#1a9e77" d="M128,160h64v-48h-64V160z M144,128h32v16h-32V128z"/>
			<path fill="#1a9e77" d="M400,112V80h-16V0h-64v80h-16v32h-16v60.944l16,8V392c0,10.416,6.712,19.216,16,22.528V496h64v-81.472
				c9.288-3.312,16-12.112,16-22.528V180.944l16-8V112H400z M336,16h32v64h-32V16z M320,96h64v16h-64V96z M368,480h-32v-64h32V480z
				 M384,392c0,4.416-3.584,8-8,8h-48c-4.416,0-8-3.584-8-8V288h64V392z M384,240h-16v16h16v16h-64v-16h32v-16h-32v-16h64V240z
				 M400,163.056l-16,8V208h-64v-36.944l-16-8V128h96V163.056z"/>
		</g>
	</g>
</g>
<g>
</g>
<g>
</g>
<g>
</g>
<g>
</g>
<g>
</g>
<g>
</g>
<g>
</g>
<g>
</g>
<g>
</g>
<g>
</g>
<g>
</g>
<g>
</g>
<g>
</g>
<g>
</g>
<g>
</g>
</svg>
